# xmcd
#
# Track frame offsets:
#	150
#	17648
#	32630
#	45683
#	76750
#
# Disc length: 1214 seconds
#
# Revision: 0
# Processed by: cddbd v1.5.1PL2 Copyright (c) Steve Scherf et al.
# Submitted via: EasyCDDAExtractor 9.0.2.1
#
DISCID=2d04bc05
DTITLE=Dolcenera - Canta il cinema
DYEAR=2006
DGENRE=Pop
TTITLE0=Lady marmalade
TTITLE1=You can leave your hat on
TTITLE2=Bye bye baby
TTITLE3=Aquarius/Let the sunshine in
TTITLE4=Love me tender
EXTD=
EXTT0=
EXTT1=
EXTT2=
EXTT3=
EXTT4=
PLAYORDER=
